<?xml version="1.0" standalone="no"?>
<!DOCTYPE svg PUBLIC "-//W3C//DTD SVG 20010904//EN"
 "http://www.w3.org/TR/2001/REC-SVG-20010904/DTD/svg10.dtd">
<svg version="1.0" xmlns="http://www.w3.org/2000/svg"
 width="512.000000pt" height="512.000000pt" viewBox="0 0 512.000000 512.000000"
 preserveAspectRatio="xMidYMid meet">

<g transform="translate(0.000000,512.000000) scale(0.100000,-0.100000)"
fill="#000000" stroke="none">
<path d="M2860 4362 c-30 -21 -100 -68 -154 -106 -78 -53 -125 -77 -214 -107
-228 -79 -420 -196 -573 -348 -160 -161 -245 -329 -254 -503 -4 -79 -4 -80 5
-22 36 251 180 448 456 626 93 59 279 143 254 114 -7 -9 -19 -16 -26 -16 -8 0
-14 -4 -14 -9 0 -5 -39 -42 -87 -84 -250 -215 -555 -555 -538 -599 3 -8 54
-34 113 -57 279 -112 558 -269 723 -407 168 -140 315 -322 381 -472 l29 -67
-5 120 c-6 141 -36 276 -97 431 -40 103 -127 279 -174 354 -89 140 84 -76 204
-256 367 -550 405 -1046 113 -1510 -35 -57 -64 -122 -96 -220 -25 -76 -42
-142 -38 -146 17 -17 252 152 370 266 91 87 111 102 92 71 -43 -72 -114 -168
-187 -254 -58 -68 -70 -87 -63 -102 6 -10 10 -28 10 -41 0 -13 6 -32 13 -42
12 -16 23 -7 125 99 216 224 354 479 423 781 33 144 31 386 -3 529 -36 145
-112 397 -147 489 -17 44 -29 81 -27 83 9 9 146 -154 190 -226 100 -166 148
-341 149 -546 2 -428 -226 -857 -655 -1230 l-106 -93 39 -6 c27 -4 38 -10 34
-19 -4 -6 1 -3 10 8 9 11 17 18 18 15 4 -7 126 90 210 167 356 326 527 671
527 1067 0 340 -118 618 -361 850 -54 52 -99 100 -99 106 0 6 -40 102 -90 214
-49 113 -90 208 -90 211 0 4 21 -5 48 -20 94 -55 179 -121 279 -219 245 -237
365 -511 388 -881 21 -336 -98 -753 -306 -1066 -91 -137 -291 -333 -439 -432
-128 -85 -323 -182 -346 -173 -8 3 -12 2 -9 -4 10 -17 -187 -71 -310 -85 -211
-24 -404 -14 -610 29 -139 30 -216 56 -328 112 -85 42 -151 83 -116 71 9 -3
26 1 38 9 20 15 20 15 -16 62 -19 26 -40 56 -45 68 -6 13 -30 27 -66 39 -32
10 -63 20 -69 22 -10 4 -9 -6 1 -41 8 -25 12 -46 10 -46 -2 0 -22 23 -44 52
-44 55 -44 57 -19 -44 10 -40 61 -88 163 -153 169 -108 478 -203 719 -222 43
-3 80 -9 82 -13 3 -5 -25 -13 -63 -19 -125 -21 -132 -23 -132 -31 0 -14 194
11 280 35 14 4 66 11 115 16 250 25 435 79 680 199 506 247 833 596 973 1040
53 165 63 233 69 430 3 102 10 188 15 191 8 5 29 125 45 255 12 99 -57 353
-148 543 -77 162 -151 272 -261 387 -193 202 -452 352 -714 415 l-92 23 -15
58 -15 58 74 0 c76 0 139 -8 329 -42 295 -52 585 -198 781 -393 184 -182 309
-427 378 -736 40 -181 49 -288 43 -506 -5 -217 -18 -310 -71 -498 -90 -318
-252 -598 -486 -839 -381 -392 -851 -619 -1411 -680 l-124 -14 195 -1 196 -1
171 50 c196 57 282 89 424 161 648 325 1098 935 1193 1618 20 141 20 394 1
530 -29 202 -71 348 -145 506 -99 213 -190 324 -421 518 -14 12 -29 23 -33 24
-13 4 -126 74 -126 79 0 9 157 -81 243 -139 136 -92 276 -232 365 -363 7 -10
0 5 -15 34 -168 318 -595 599 -1097 722 -145 36 -311 60 -411 60 l-75 0 0 69
c0 38 -3 76 -6 85 -10 26 -45 18 -104 -22z m370 -494 c229 -122 443 -342 558
-573 63 -128 136 -358 157 -495 6 -42 4 -39 -39 47 -86 175 -203 327 -342 444
-90 76 -206 153 -281 188 l-51 24 -61 141 c-61 143 -121 293 -121 301 0 9 104
-36 180 -77z"/>
<path d="M4150 3555 c13 -14 26 -25 28 -25 3 0 -5 11 -18 25 -13 14 -26 25
-28 25 -3 0 5 -11 18 -25z"/>
<path d="M4259 3420 c38 -60 78 -142 111 -228 24 -63 35 -80 44 -73 9 7 16 7
25 -2 10 -9 10 -6 2 15 -20 53 -53 112 -118 207 -67 97 -105 146 -64 81z"/>
<path d="M4501 2954 c0 -11 3 -14 6 -6 3 7 2 16 -1 19 -3 4 -6 -2 -5 -13z"/>
<path d="M4511 2914 c0 -11 3 -14 6 -6 3 7 2 16 -1 19 -3 4 -6 -2 -5 -13z"/>
<path d="M4552 2745 c0 -16 2 -22 5 -12 2 9 2 23 0 30 -3 6 -5 -1 -5 -18z"/>
<path d="M4361 2614 c-1 -6 5 -29 13 -50 7 -22 17 -64 21 -94 4 -30 16 -77 26
-103 11 -26 20 -64 21 -85 1 -36 1 -36 5 -5 2 18 -7 78 -21 135 -25 103 -64
223 -65 202z"/>
<path d="M4447 2183 c6 -84 11 -88 12 -10 1 37 -3 67 -7 67 -5 0 -7 -26 -5
-57z"/>
<path d="M2738 1179 c-37 -19 -38 -20 -38 -79 0 -92 25 -78 58 33 11 37 19 67
19 67 -1 -1 -19 -10 -39 -21z"/>
<path d="M1119 1060 c-6 -53 17 -155 52 -226 33 -67 149 -181 236 -232 92 -54
245 -115 369 -147 86 -22 114 -25 273 -24 157 2 167 3 92 10 -150 14 -299 42
-271 50 19 6 15 7 -20 7 -61 -1 -192 36 -264 74 -32 17 -56 25 -52 19 11 -17
-92 31 -160 74 -75 48 -158 133 -189 195 -25 50 -51 144 -57 210 -3 34 -4 33
-9 -10z"/>
<path d="M1170 1072 c0 -4 19 -34 41 -67 23 -33 38 -52 35 -42 -3 10 -6 33 -6
51 0 27 -6 35 -35 49 -19 9 -35 13 -35 9z"/>
<path d="M1102 970 c0 -14 2 -19 5 -12 2 6 2 18 0 25 -3 6 -5 1 -5 -13z"/>
<path d="M1102 875 c0 -16 2 -22 5 -12 2 9 2 23 0 30 -3 6 -5 -1 -5 -18z"/>
<path d="M1909 487 c4 -4 35 -7 67 -5 l59 3 -67 5 c-37 3 -63 1 -59 -3z"/>
</g>
</svg>
